<?xml version="1.0" encoding="utf-8"?>
<!-- Generator: Adobe Illustrator 17.0.0, SVG Export Plug-In . SVG Version: 6.00 Build 0)  -->
<!DOCTYPE svg PUBLIC "-//W3C//DTD SVG 1.1//EN" "http://www.w3.org/Graphics/SVG/1.1/DTD/svg11.dtd" [
	<!ENTITY ns_extend "http://ns.adobe.com/Extensibility/1.0/">
	<!ENTITY ns_ai "http://ns.adobe.com/AdobeIllustrator/10.0/">
	<!ENTITY ns_graphs "http://ns.adobe.com/Graphs/1.0/">
	<!ENTITY ns_vars "http://ns.adobe.com/Variables/1.0/">
	<!ENTITY ns_imrep "http://ns.adobe.com/ImageReplacement/1.0/">
	<!ENTITY ns_sfw "http://ns.adobe.com/SaveForWeb/1.0/">
	<!ENTITY ns_custom "http://ns.adobe.com/GenericCustomNamespace/1.0/">
	<!ENTITY ns_adobe_xpath "http://ns.adobe.com/XPath/1.0/">
]>
<svg version="1.1" id="Layer_1" xmlns:x="&ns_extend;" xmlns:i="&ns_ai;" xmlns:graph="&ns_graphs;"
	 xmlns="http://www.w3.org/2000/svg" xmlns:xlink="http://www.w3.org/1999/xlink" x="0px" y="0px" width="20px" height="20px"
	 viewBox="563 785.061 20 20" enable-background="new 563 785.061 20 20" xml:space="preserve">
<metadata>
	<sfw  xmlns="&ns_sfw;">
		<slices></slices>
		<sliceSourceBounds  width="20" height="20" x="562.5" y="45.439" bottomLeftOrigin="true"></sliceSourceBounds>
	</sfw>
</metadata>
<g>
	<g fill="#9f9683">
		<path d="M581.316,793.37c-0.446,0-0.808,0.378-0.808,0.845v0.851c-0.001,2.22-0.829,4.306-2.331,5.875
			c-1.501,1.568-3.495,2.431-5.616,2.431c-0.002,0-0.003,0-0.005,0c-4.382-0.003-7.944-3.733-7.942-8.315
			c0.001-2.22,0.829-4.306,2.331-5.875c1.501-1.568,3.495-2.431,5.616-2.431c0.002,0,0.003,0,0.005,0
			c1.12,0.001,2.207,0.243,3.23,0.719c0.408,0.19,0.885-0.002,1.067-0.428c0.182-0.426-0.002-0.926-0.409-1.116
			c-1.231-0.574-2.539-0.865-3.886-0.866c-0.002,0-0.004,0-0.006,0c-2.552,0-4.952,1.039-6.758,2.925
			c-1.807,1.888-2.803,4.398-2.805,7.069c-0.001,2.671,0.992,5.183,2.797,7.073c1.805,1.89,4.206,2.931,6.76,2.933
			c0.002,0,0.004,0,0.006,0c2.552,0,4.952-1.039,6.758-2.925c1.807-1.888,2.803-4.398,2.805-7.07v-0.851
			C582.124,793.749,581.763,793.37,581.316,793.37z"/>
	</g>
</g>
<g>
	<g fill="#9f9683">
		<path d="M582.763,786.23c-0.315-0.33-0.827-0.33-1.143,0l-9.059,9.473l-2.055-2.149c-0.315-0.33-0.827-0.33-1.142,0
			c-0.316,0.33-0.316,0.865,0,1.195l2.626,2.747c0.158,0.165,0.365,0.247,0.571,0.247c0.207,0,0.414-0.083,0.571-0.247l9.63-10.071
			C583.079,787.095,583.079,786.56,582.763,786.23z"/>
	</g>
</g>
</svg>
